<svg width="24" height="24" xmlns="http://www.w3.org/2000/svg">

 <g>
  <title>background</title>
  <rect fill="none" id="canvas_background" height="402" width="582" y="-1" x="-1"/>
 </g>
 <g>
  <title>Layer 1</title>
  <path fill="#f15355" id="svg_2" d="m19.7,0.5l-15.4,0c-2.1,0 -3.8,1.7 -3.8,3.8l0,15.4c0,2.1 1.7,3.8 3.8,3.8l15.4,0c2.1,0 3.8,-1.7 3.8,-3.8l0,-15.4c0,-2.1 -1.7,-3.8 -3.8,-3.8zm-6.7,14.1l-4.4,0c-0.3,0 -0.5,0.2 -0.5,0.5l0,4.2l-2.1,0l0,-14.6l7,0c2.7,0 5,2.2 5,5c0,2.7 -2.2,4.9 -5,4.9z"/>
  <path fill="#f15355" id="svg_3" d="m13,6.8l-4.4,0c-0.3,0 -0.5,0.2 -0.5,0.5l0,4.7c0,0.3 0.2,0.5 0.5,0.5l4.4,0c1.6,0 2.8,-1.3 2.8,-2.8c0.1,-1.6 -1.2,-2.9 -2.8,-2.9z"/>
 </g>
</svg>